<svg width="350" height="307" viewBox="0 0 350 307" fill="none" xmlns="http://www.w3.org/2000/svg">
<path d="M86.1754 196.859C86.2695 197.235 86.3871 197.635 86.5283 198.058L86.8107 199.185C86.9049 199.561 86.9519 199.867 86.9519 200.101C86.9519 201.417 86.5989 202.58 85.893 203.59C85.187 204.6 84.2692 205.34 83.1397 205.81C82.7161 205.857 82.269 205.881 81.7983 205.881C81.4218 205.928 80.9982 205.951 80.5276 205.951H79.1862L68.173 206.092V217.862C68.173 219.6 68.2083 221.351 68.2789 223.113C68.3495 224.875 68.4318 226.46 68.526 227.87C68.6201 229.561 68.7378 231.182 68.879 232.733H58.7129L58.9247 229.984C58.9718 228.904 59.0188 227.435 59.0659 225.579C59.113 223.723 59.1365 221.245 59.1365 218.144V207.361C58.3364 208.066 57.4422 208.418 56.4538 208.418C55.6537 208.418 54.9595 208.23 54.3712 207.854C53.7828 207.478 53.3004 206.961 52.9239 206.304L44.9464 205.881C43.3932 205.505 42.099 204.718 41.0635 203.52C40.0281 202.322 39.5104 200.9 39.5104 199.256C39.5104 198.974 39.5339 198.715 39.581 198.48C39.628 198.246 39.6986 198.011 39.7928 197.776L41.5577 193.688C41.6518 192.654 41.946 191.691 42.4402 190.798C42.9344 189.906 43.558 189.13 44.311 188.473L55.3948 167.963H55.4654C56.3597 166.319 57.4186 164.909 58.6423 163.735C59.866 162.56 61.4427 161.973 63.3723 161.973C65.0667 161.973 66.5845 162.419 67.9259 163.312C69.2672 164.204 70.2674 165.379 70.9263 166.836L79.8216 184.244C81.4218 184.808 82.7396 185.794 83.775 187.204C84.8105 188.613 85.3282 190.234 85.3282 192.067C85.3282 192.819 85.2105 193.617 84.9752 194.463L86.1754 196.859Z" fill="url(#paint0_linear_9936_162942)"/>
<path d="M335.445 196.859C335.539 197.235 335.656 197.635 335.797 198.058L336.08 199.185C336.174 199.561 336.221 199.867 336.221 200.101C336.221 201.417 335.868 202.58 335.162 203.59C334.456 204.6 333.538 205.34 332.409 205.81C331.985 205.857 331.538 205.881 331.067 205.881C330.691 205.928 330.267 205.951 329.797 205.951H328.455L317.442 206.092V217.862C317.442 219.6 317.477 221.351 317.548 223.113C317.619 224.875 317.701 226.46 317.795 227.87C317.889 229.561 318.007 231.182 318.148 232.733H307.982L308.194 229.984C308.241 228.904 308.288 227.435 308.335 225.579C308.382 223.723 308.406 221.245 308.406 218.144V207.361C307.606 208.066 306.711 208.418 305.723 208.418C304.923 208.418 304.229 208.23 303.64 207.854C303.052 207.478 302.57 206.961 302.193 206.304L294.216 205.881C292.662 205.505 291.368 204.718 290.333 203.52C289.297 202.322 288.78 200.9 288.78 199.256C288.78 198.974 288.803 198.715 288.85 198.48C288.897 198.246 288.968 198.011 289.062 197.776L290.827 193.688C290.921 192.654 291.215 191.691 291.709 190.798C292.204 189.906 292.827 189.13 293.58 188.473L304.664 167.963H304.735C305.629 166.319 306.688 164.909 307.911 163.735C309.135 162.56 310.712 161.973 312.642 161.973C314.336 161.973 315.854 162.419 317.195 163.312C318.536 164.204 319.537 165.379 320.195 166.836L329.091 184.244C330.691 184.808 332.009 185.794 333.044 187.204C334.08 188.613 334.597 190.234 334.597 192.067C334.597 192.819 334.48 193.617 334.244 194.463L335.445 196.859Z" fill="url(#paint1_linear_9936_162942)"/>
<path d="M305.864 204.604C305.937 204.899 306.029 205.212 306.139 205.544L306.359 206.428C306.433 206.723 306.47 206.962 306.47 207.146C306.47 208.178 306.194 209.09 305.644 209.882C305.093 210.674 304.378 211.254 303.497 211.623C303.167 211.659 302.818 211.678 302.451 211.678C302.158 211.715 301.828 211.733 301.461 211.733H300.415L291.828 211.844V221.072C291.828 222.435 291.856 223.808 291.911 225.189C291.966 226.571 292.03 227.814 292.104 228.919C292.177 230.246 292.269 231.517 292.379 232.732H284.453L284.618 230.577C284.654 229.73 284.691 228.579 284.728 227.123C284.765 225.668 284.783 223.725 284.783 221.293V212.838C284.159 213.391 283.462 213.667 282.691 213.667C282.067 213.667 281.526 213.52 281.068 213.225C280.609 212.93 280.233 212.525 279.939 212.009L273.719 211.678C272.509 211.383 271.499 210.766 270.692 209.827C269.885 208.887 269.481 207.773 269.481 206.483C269.481 206.262 269.5 206.06 269.536 205.875C269.573 205.691 269.628 205.507 269.701 205.323L271.077 202.118C271.151 201.307 271.38 200.552 271.765 199.852C272.151 199.152 272.637 198.544 273.224 198.028L281.866 181.947H281.921C282.618 180.658 283.444 179.553 284.398 178.632C285.352 177.711 286.581 177.25 288.085 177.25C289.406 177.25 290.59 177.6 291.636 178.3C292.681 179 293.461 179.921 293.975 181.063L300.91 194.713C302.158 195.155 303.185 195.928 303.993 197.034C304.8 198.139 305.204 199.41 305.204 200.847C305.204 201.436 305.112 202.062 304.928 202.726L305.864 204.604Z" fill="url(#paint2_linear_9936_162942)"/>
<path fill-rule="evenodd" clip-rule="evenodd" d="M170.176 214.236C219.531 214.236 263.975 218.262 295.042 224.693C325.426 224.895 349.891 233.996 349.891 245.194C349.891 254.068 334.525 261.626 313.022 264.481C307.89 265.999 302.113 267.43 295.768 268.76C295.933 269.608 296.016 270.464 296.016 271.327C296.016 290.867 253.536 306.707 201.133 306.707C153.987 306.707 114.873 293.886 107.5 277.084C44.5916 272.307 0.109619 260.549 0.109619 246.802C0.109619 228.817 76.2507 214.236 170.176 214.236Z" fill="#E7EAF0"/>
<path d="M255.007 156.105L173.794 145.888V186.406L253.71 195.742L255.007 156.105Z" fill="#A2ABB9"/>
<path d="M109.466 159.109L173.784 145.888L173.793 191.445L109.466 204.587V159.109Z" fill="#C0C7D2"/>
<path d="M185.051 176.579L254.203 158.751V243.043L185.051 260.871V176.579Z" fill="#A2ABB9"/>
<path d="M110.271 161.165L185.856 176.24L185.416 260.873L110.271 244.086V161.165Z" fill="#C0C7D2"/>
<path d="M185.855 176.589L109.601 160.363L93.3845 190.25L170.934 208.609L185.855 176.589Z" fill="#D1D6E2"/>
<path d="M185.855 176.215L255.076 157.144L272.697 186.824L206.398 208.606L185.855 176.215Z" fill="#C0C7D2"/>
<path d="M112.087 37.3125C92.4561 65.423 100.794 86.4037 137.102 100.255" stroke="url(#paint3_linear_9936_162942)" stroke-width="0.804094" stroke-linecap="round"/>
<path d="M105.331 95.5215C111.976 103.778 118.012 107.907 123.439 107.907" stroke="url(#paint4_linear_9936_162942)" stroke-width="0.804094" stroke-linecap="round"/>
<path d="M265.646 1.29199C266.535 26.2767 243.056 43.7715 195.209 53.7765" stroke="url(#paint5_linear_9936_162942)" stroke-width="0.804094" stroke-linecap="round"/>
<path d="M272.028 32.7305C260.29 42.569 251.11 47.4883 244.488 47.4883" stroke="url(#paint6_linear_9936_162942)" stroke-width="0.804094" stroke-linecap="round"/>
<path d="M252.597 89.8608C206.391 84.2823 177.353 96.1814 165.481 125.558" stroke="url(#paint7_linear_9936_162942)" stroke-width="0.804094" stroke-linecap="round"/>
<path d="M111.008 56.6211C138.304 60.8973 149.477 68.4493 144.527 79.2772C139.577 90.105 128.405 82.553 111.008 56.6211Z" fill="url(#paint8_linear_9936_162942)"/>
<path d="M209.039 32.7307C213.033 18.5916 223.47 13.8786 240.351 18.5916C239.623 25.0779 229.186 29.7909 209.039 32.7307Z" fill="url(#paint9_linear_9936_162942)"/>
<path d="M172.433 136.013C184.898 111.77 202.319 104.866 224.694 115.303C214.257 134.612 196.836 141.515 172.433 136.013Z" fill="url(#paint10_linear_9936_162942)"/>
<path d="M205.156 40.1127C208.211 33.5654 212.231 29.3732 217.216 27.5361" stroke="url(#paint11_linear_9936_162942)" stroke-width="0.804094" stroke-linecap="round"/>
<path d="M137.102 76.0801C142.811 77.4029 145.666 82.8939 145.666 92.553" stroke="url(#paint12_linear_9936_162942)" stroke-width="0.804094" stroke-linecap="round"/>
<path d="M167.089 143.765C171.724 134.919 178.157 130.495 186.389 130.495" stroke="url(#paint13_linear_9936_162942)" stroke-width="0.804094" stroke-linecap="round"/>
<defs>
<linearGradient id="paint0_linear_9936_162942" x1="83.4025" y1="231.884" x2="58.8556" y2="232.266" gradientUnits="userSpaceOnUse">
<stop stop-color="#E0E5EF" stop-opacity="0"/>
<stop offset="1" stop-color="#E0E5EF"/>
</linearGradient>
<linearGradient id="paint1_linear_9936_162942" x1="332.672" y1="231.884" x2="308.125" y2="232.266" gradientUnits="userSpaceOnUse">
<stop stop-color="#E0E5EF" stop-opacity="0"/>
<stop offset="1" stop-color="#E0E5EF"/>
</linearGradient>
<linearGradient id="paint2_linear_9936_162942" x1="303.525" y1="232.067" x2="284.602" y2="232.363" gradientUnits="userSpaceOnUse">
<stop stop-color="#E0E5EF" stop-opacity="0"/>
<stop offset="1" stop-color="#E0E5EF"/>
</linearGradient>
<linearGradient id="paint3_linear_9936_162942" x1="126.038" y1="100.255" x2="96.4681" y2="47.6626" gradientUnits="userSpaceOnUse">
<stop stop-color="#A2ABB9"/>
<stop offset="1" stop-color="#E7EAF0"/>
</linearGradient>
<linearGradient id="paint4_linear_9936_162942" x1="125.122" y1="104.611" x2="110.063" y2="94.3233" gradientUnits="userSpaceOnUse">
<stop stop-color="#A2ABB9"/>
<stop offset="1" stop-color="#E7EAF0"/>
</linearGradient>
<linearGradient id="paint5_linear_9936_162942" x1="195.209" y1="42.0942" x2="255.075" y2="-0.661728" gradientUnits="userSpaceOnUse">
<stop stop-color="#A2ABB9"/>
<stop offset="1" stop-color="#E7EAF0"/>
</linearGradient>
<linearGradient id="paint6_linear_9936_162942" x1="242.163" y1="42.2282" x2="269.177" y2="31.6039" gradientUnits="userSpaceOnUse">
<stop stop-color="#A2ABB9"/>
<stop offset="1" stop-color="#E7EAF0"/>
</linearGradient>
<linearGradient id="paint7_linear_9936_162942" x1="165.481" y1="110.388" x2="241.673" y2="77.9987" gradientUnits="userSpaceOnUse">
<stop stop-color="#A2ABB9"/>
<stop offset="1" stop-color="#E7EAF0"/>
</linearGradient>
<linearGradient id="paint8_linear_9936_162942" x1="113.925" y1="78.455" x2="140.94" y2="54.091" gradientUnits="userSpaceOnUse">
<stop stop-color="#C0C7D2"/>
<stop offset="1" stop-color="#909AA9"/>
</linearGradient>
<linearGradient id="paint9_linear_9936_162942" x1="211.674" y1="26.7138" x2="235.531" y2="12.9085" gradientUnits="userSpaceOnUse">
<stop stop-color="#C0C7D2"/>
<stop offset="1" stop-color="#909AA9"/>
</linearGradient>
<linearGradient id="paint10_linear_9936_162942" x1="176.831" y1="127.713" x2="216.465" y2="104.171" gradientUnits="userSpaceOnUse">
<stop stop-color="#C0C7D2"/>
<stop offset="1" stop-color="#909AA9"/>
</linearGradient>
<linearGradient id="paint11_linear_9936_162942" x1="205.641" y1="40.1127" x2="217.236" y2="28.0209" gradientUnits="userSpaceOnUse">
<stop stop-color="#909AA9"/>
<stop offset="1" stop-color="#C0C7D2"/>
</linearGradient>
<linearGradient id="paint12_linear_9936_162942" x1="143.137" y1="92.553" x2="134.449" y2="78.0728" gradientUnits="userSpaceOnUse">
<stop stop-color="#909AA9"/>
<stop offset="1" stop-color="#C0C7D2"/>
</linearGradient>
<linearGradient id="paint13_linear_9936_162942" x1="167.089" y1="140.267" x2="183.123" y2="129.243" gradientUnits="userSpaceOnUse">
<stop stop-color="#909AA9"/>
<stop offset="1" stop-color="#C0C7D2"/>
</linearGradient>
</defs>
</svg>
